<?xml version="1.0" encoding="UTF-8" standalone="no"?>
<!DOCTYPE svg PUBLIC "-//W3C//DTD SVG 1.1//EN"
 "http://www.w3.org/Graphics/SVG/1.1/DTD/svg11.dtd">
<!-- Generated by graphviz version 13.0.1 (20250615.1724)
 -->
<!-- Title: RemoteSchoolyComponents Pages: 1 -->
<svg width="1443pt" height="551pt"
 viewBox="0.00 0.00 1443.00 551.00" xmlns="http://www.w3.org/2000/svg" xmlns:xlink="http://www.w3.org/1999/xlink">
<g id="graph0" class="graph" transform="scale(1 1) rotate(0) translate(28.8 521.8)">
<title>RemoteSchoolyComponents</title>
<polygon fill="white" stroke="none" points="-28.8,28.8 -28.8,-521.8 1413.89,-521.8 1413.89,28.8 -28.8,28.8"/>
<text xml:space="preserve" text-anchor="middle" x="692.54" y="-468.1" font-family="Helvetica,sans-Serif" font-size="22.00">Iteración 3 — componentes y cuatro happy paths</text>
<!-- gobierno -->
<g id="node1" class="node">
<title>gobierno</title>
<ellipse fill="#e0f2fe" stroke="#0284c7" cx="190.84" cy="-444.5" rx="35.65" ry="18"/>
<text xml:space="preserve" text-anchor="middle" x="190.84" y="-440.15" font-family="Helvetica,sans-Serif" font-size="10.50">Gobierno</text>
</g>
<!-- center -->
<g id="node4" class="node">
<title>center</title>
<polygon fill="#f8fbff" stroke="none" points="68.59,-194.5 68.59,-366.75 757.09,-366.75 757.09,-194.5 68.59,-194.5"/>
<polygon fill="#dbeafe" stroke="none" points="70.59,-324 70.59,-364.75 755.09,-364.75 755.09,-324 70.59,-324"/>
<polygon fill="none" stroke="#2563eb" points="70.59,-324 70.59,-364.75 755.09,-364.75 755.09,-324 70.59,-324"/>
<text xml:space="preserve" text-anchor="start" x="335.21" y="-337.65" font-family="Helvetica,sans-Serif" font-weight="bold" font-size="18.00">CENTRO DE LIMA</text>
<polygon fill="#dbeafe" stroke="none" points="70.59,-282.5 70.59,-324 175.84,-324 175.84,-282.5 70.59,-282.5"/>
<polygon fill="none" stroke="#2563eb" points="70.59,-282.5 70.59,-324 175.84,-324 175.84,-282.5 70.59,-282.5"/>
<text xml:space="preserve" text-anchor="start" x="88.34" y="-304.02" font-family="Helvetica,sans-Serif" font-weight="bold" font-size="10.50">Portal Central</text>
<text xml:space="preserve" text-anchor="start" x="85.34" y="-294.95" font-family="Helvetica,sans-Serif" font-size="9.00">Gobierno y autoría</text>
<polygon fill="#dbeafe" stroke="none" points="175.84,-282.5 175.84,-324 302.09,-324 302.09,-282.5 175.84,-282.5"/>
<polygon fill="none" stroke="#2563eb" points="175.84,-282.5 175.84,-324 302.09,-324 302.09,-282.5 175.84,-282.5"/>
<text xml:space="preserve" text-anchor="start" x="193.96" y="-304.02" font-family="Helvetica,sans-Serif" font-weight="bold" font-size="10.50">Identity &amp; Access</text>
<text xml:space="preserve" text-anchor="start" x="205.59" y="-294.95" font-family="Helvetica,sans-Serif" font-size="9.00">rol · sede · curso</text>
<polygon fill="#dbeafe" stroke="none" points="302.09,-282.5 302.09,-324 435.84,-324 435.84,-282.5 302.09,-282.5"/>
<polygon fill="none" stroke="#2563eb" points="302.09,-282.5 302.09,-324 435.84,-324 435.84,-282.5 302.09,-282.5"/>
<text xml:space="preserve" text-anchor="start" x="313.09" y="-304.02" font-family="Helvetica,sans-Serif" font-weight="bold" font-size="10.50">Course &amp; Assignment</text>
<text xml:space="preserve" text-anchor="start" x="319.46" y="-294.95" font-family="Helvetica,sans-Serif" font-size="9.00">semanas · asignaciones</text>
<polygon fill="#dbeafe" stroke="none" points="435.84,-282.5 435.84,-324 581.59,-324 581.59,-282.5 435.84,-282.5"/>
<polygon fill="none" stroke="#2563eb" points="435.84,-282.5 435.84,-324 581.59,-324 581.59,-282.5 435.84,-282.5"/>
<text xml:space="preserve" text-anchor="start" x="452.84" y="-304.02" font-family="Helvetica,sans-Serif" font-weight="bold" font-size="10.50">Authoring &amp; Approval</text>
<text xml:space="preserve" text-anchor="start" x="455.84" y="-294.95" font-family="Helvetica,sans-Serif" font-size="9.00">manual · revisión humana</text>
<polygon fill="#dbeafe" stroke="none" points="581.59,-282.5 581.59,-324 755.09,-324 755.09,-282.5 581.59,-282.5"/>
<polygon fill="none" stroke="#2563eb" points="581.59,-282.5 581.59,-324 755.09,-324 755.09,-282.5 581.59,-282.5"/>
<text xml:space="preserve" text-anchor="start" x="616.96" y="-304.02" font-family="Helvetica,sans-Serif" font-weight="bold" font-size="10.50">AI Gateway &amp; Policy</text>
<text xml:space="preserve" text-anchor="start" x="611.34" y="-294.95" font-family="Helvetica,sans-Serif" font-size="9.00">presupuesto · límites · reuse</text>
<polygon fill="#dbeafe" stroke="none" points="70.59,-241 70.59,-282.5 175.84,-282.5 175.84,-241 70.59,-241"/>
<polygon fill="none" stroke="#2563eb" points="70.59,-241 70.59,-282.5 175.84,-282.5 175.84,-241 70.59,-241"/>
<text xml:space="preserve" text-anchor="start" x="81.59" y="-262.52" font-family="Helvetica,sans-Serif" font-weight="bold" font-size="10.50">Package Builder</text>
<text xml:space="preserve" text-anchor="start" x="83.84" y="-253.45" font-family="Helvetica,sans-Serif" font-size="9.00">manifiesto · versión</text>
<polygon fill="#dbeafe" stroke="none" points="175.84,-241 175.84,-282.5 302.09,-282.5 302.09,-241 175.84,-241"/>
<polygon fill="none" stroke="#2563eb" points="175.84,-241 175.84,-282.5 302.09,-282.5 302.09,-241 175.84,-241"/>
<text xml:space="preserve" text-anchor="start" x="204.84" y="-262.52" font-family="Helvetica,sans-Serif" font-weight="bold" font-size="10.50">Sync Catalog</text>
<text xml:space="preserve" text-anchor="start" x="186.84" y="-253.45" font-family="Helvetica,sans-Serif" font-size="9.00">feed · revocación · estado</text>
<polygon fill="#dbeafe" stroke="none" points="302.09,-241 302.09,-282.5 435.84,-282.5 435.84,-241 302.09,-241"/>
<polygon fill="none" stroke="#2563eb" points="302.09,-241 302.09,-282.5 435.84,-282.5 435.84,-241 302.09,-241"/>
<text xml:space="preserve" text-anchor="start" x="328.46" y="-262.52" font-family="Helvetica,sans-Serif" font-weight="bold" font-size="10.50">Progress Ingest</text>
<text xml:space="preserve" text-anchor="start" x="316.09" y="-253.45" font-family="Helvetica,sans-Serif" font-size="9.00">confirmación idempotente</text>
<polygon fill="#dbeafe" stroke="none" points="435.84,-241 435.84,-282.5 581.59,-282.5 581.59,-241 435.84,-241"/>
<polygon fill="none" stroke="#2563eb" points="435.84,-241 435.84,-282.5 581.59,-282.5 581.59,-241 435.84,-241"/>
<text xml:space="preserve" text-anchor="start" x="462.59" y="-262.52" font-family="Helvetica,sans-Serif" font-weight="bold" font-size="10.50">Reporting &amp; Audit</text>
<text xml:space="preserve" text-anchor="start" x="446.84" y="-253.45" font-family="Helvetica,sans-Serif" font-size="9.00">cobertura · ahorro · agregados</text>
<polygon fill="#ffedd5" stroke="none" points="581.59,-241 581.59,-282.5 755.09,-282.5 755.09,-241 581.59,-241"/>
<polygon fill="none" stroke="#2563eb" points="581.59,-241 581.59,-282.5 755.09,-282.5 755.09,-241 581.59,-241"/>
<text xml:space="preserve" text-anchor="start" x="612.84" y="-262.52" font-family="Helvetica,sans-Serif" font-weight="bold" font-size="10.50">Auditoría · agregados</text>
<text xml:space="preserve" text-anchor="start" x="592.59" y="-253.45" font-family="Helvetica,sans-Serif" font-size="9.00">append&#45;only · sin contenido personal</text>
<polygon fill="#ffedd5" stroke="none" points="70.59,-196.5 70.59,-241 175.84,-241 175.84,-196.5 70.59,-196.5"/>
<polygon fill="none" stroke="#2563eb" points="70.59,-196.5 70.59,-241 175.84,-241 175.84,-196.5 70.59,-196.5"/>
<text xml:space="preserve" text-anchor="start" x="87.21" y="-215.4" font-family="Helvetica,sans-Serif" font-weight="bold" font-size="10.50">BD metadatos</text>
<polygon fill="#ffedd5" stroke="none" points="175.84,-196.5 175.84,-241 302.09,-241 302.09,-196.5 175.84,-196.5"/>
<polygon fill="none" stroke="#2563eb" points="175.84,-196.5 175.84,-241 302.09,-241 302.09,-196.5 175.84,-196.5"/>
<text xml:space="preserve" text-anchor="start" x="191.34" y="-215.4" font-family="Helvetica,sans-Serif" font-weight="bold" font-size="10.50">Objetos por huella</text>
<polygon fill="#ffedd5" stroke="none" points="302.09,-196.5 302.09,-241 581.59,-241 581.59,-196.5 302.09,-196.5"/>
<polygon fill="none" stroke="#2563eb" points="302.09,-196.5 302.09,-241 581.59,-241 581.59,-196.5 302.09,-196.5"/>
<text xml:space="preserve" text-anchor="start" x="362.71" y="-215.4" font-family="Helvetica,sans-Serif" font-weight="bold" font-size="10.50">Tokens · baseline · reuse index</text>
<polygon fill="#ffffff" stroke="none" points="581.59,-196.5 581.59,-241 755.09,-241 755.09,-196.5 581.59,-196.5"/>
<polygon fill="none" stroke="#2563eb" points="581.59,-196.5 581.59,-241 755.09,-241 755.09,-196.5 581.59,-196.5"/>
<text xml:space="preserve" text-anchor="start" x="622.21" y="-221.45" font-family="Helvetica,sans-Serif" font-size="9.00">H1: autoría → paquete</text>
<text xml:space="preserve" text-anchor="start" x="618.84" y="-210.2" font-family="Helvetica,sans-Serif" font-size="9.00">H4: programa → reporte</text>
<polygon fill="none" stroke="#2563eb" stroke-width="2" points="69.59,-195.5 69.59,-365.75 756.09,-365.75 756.09,-195.5 69.59,-195.5"/>
</g>
<!-- gobierno&#45;&gt;center -->
<g id="edge1" class="edge">
<title>gobierno&#45;&gt;center:portal</title>
<path fill="none" stroke="#7c3aed" stroke-width="2" d="M175.84,-427.97C161.11,-412.73 140.84,-391.75 140.84,-391.75 140.84,-391.75 70.59,-366.75 70.59,-366.75 70.59,-366.75 70.04,-331.77 69.75,-313.74"/>
<polygon fill="#7c3aed" stroke="#7c3aed" stroke-width="2" points="72.38,-313.73 69.64,-306.28 67.13,-313.82 72.38,-313.73"/>
<text xml:space="preserve" text-anchor="middle" x="196.1" y="-392.95" font-family="Helvetica,sans-Serif" font-size="9.00">H4 configura · consulta</text>
</g>
<!-- lima -->
<g id="node2" class="node">
<title>lima</title>
<ellipse fill="#e0f2fe" stroke="#0284c7" cx="57.84" cy="-444.5" rx="57.84" ry="18"/>
<text xml:space="preserve" text-anchor="middle" x="57.84" y="-440.15" font-family="Helvetica,sans-Serif" font-size="10.50">Profesor de Lima</text>
</g>
<!-- lima&#45;&gt;center -->
<g id="edge2" class="edge">
<title>lima&#45;&gt;center:portal</title>
<path fill="none" stroke="#2563eb" stroke-width="2" d="M57.63,-426.42C57.5,-414.79 57.34,-401.5 57.34,-401.5 57.34,-401.5 57.34,-391.75 57.34,-391.75 57.34,-391.75 64.97,-336.65 68.18,-313.4"/>
<polygon fill="#2563eb" stroke="#2563eb" stroke-width="2" points="70.75,-314.04 69.17,-306.25 65.54,-313.32 70.75,-314.04"/>
<text xml:space="preserve" text-anchor="middle" x="94.09" y="-392.95" font-family="Helvetica,sans-Serif" font-size="9.00">H1 crea · aprueba</text>
</g>
<!-- ai_provider -->
<g id="node3" class="node">
<title>ai_provider</title>
<path fill="#fce7f3" stroke="#db2777" d="M702.46,-462.5C702.46,-462.5 633.21,-462.5 633.21,-462.5 627.21,-462.5 621.21,-456.5 621.21,-450.5 621.21,-450.5 621.21,-438.5 621.21,-438.5 621.21,-432.5 627.21,-426.5 633.21,-426.5 633.21,-426.5 702.46,-426.5 702.46,-426.5 708.46,-426.5 714.46,-432.5 714.46,-438.5 714.46,-438.5 714.46,-450.5 714.46,-450.5 714.46,-456.5 708.46,-462.5 702.46,-462.5"/>
<text xml:space="preserve" text-anchor="middle" x="667.84" y="-440.15" font-family="Helvetica,sans-Serif" font-size="10.50">Proveedor de IA</text>
</g>
<!-- ai_provider&#45;&gt;center -->
<g id="edge3" class="edge">
<title>ai_provider&#45;&gt;center:ai</title>
<path fill="none" stroke="#db2777" stroke-width="1.8" d="M695.25,-419.39C720.83,-396.88 755.09,-366.75 755.09,-366.75 755.09,-366.75 755.64,-331.4 755.93,-313.45"/>
<polygon fill="#db2777" stroke="#db2777" stroke-width="1.8" points="693.58,-417.36 689.68,-424.28 697.05,-421.3 693.58,-417.36"/>
<polygon fill="#db2777" stroke="#db2777" stroke-width="1.8" points="758.55,-313.51 756.05,-305.97 753.3,-313.43 758.55,-313.51"/>
<text xml:space="preserve" text-anchor="middle" x="764.5" y="-392.95" font-family="Helvetica,sans-Serif" font-size="9.00">H1 propuesta + uso</text>
</g>
<!-- edge_site -->
<g id="node5" class="node">
<title>edge_site</title>
<polygon fill="#f0fdf4" stroke="none" points="406.21,0 406.21,-134.75 979.46,-134.75 979.46,0 406.21,0"/>
<polygon fill="#dcfce7" stroke="none" points="408.21,-80.75 408.21,-132.75 977.46,-132.75 977.46,-80.75 408.21,-80.75"/>
<polygon fill="none" stroke="#16a34a" points="408.21,-80.75 408.21,-132.75 977.46,-132.75 977.46,-80.75 408.21,-80.75"/>
<text xml:space="preserve" text-anchor="start" x="610.34" y="-104.65" font-family="Helvetica,sans-Serif" font-weight="bold" font-size="18.00">SEDE PROVINCIAL</text>
<text xml:space="preserve" text-anchor="start" x="616.34" y="-94.25" font-family="Helvetica,sans-Serif" font-size="10.00">sigue operando sin Internet externo</text>
<polygon fill="#dcfce7" stroke="none" points="408.21,-37.25 408.21,-80.75 533.46,-80.75 533.46,-37.25 408.21,-37.25"/>
<polygon fill="none" stroke="#16a34a" points="408.21,-37.25 408.21,-80.75 533.46,-80.75 533.46,-37.25 408.21,-37.25"/>
<text xml:space="preserve" text-anchor="start" x="441.21" y="-59.77" font-family="Helvetica,sans-Serif" font-weight="bold" font-size="10.50">Sync Agent</text>
<text xml:space="preserve" text-anchor="start" x="420.21" y="-50.7" font-family="Helvetica,sans-Serif" font-size="9.00">reanuda · verifica · activa</text>
<polygon fill="#fef3c7" stroke="none" points="533.46,-37.25 533.46,-80.75 662.46,-80.75 662.46,-37.25 533.46,-37.25"/>
<polygon fill="none" stroke="#16a34a" points="533.46,-37.25 533.46,-80.75 662.46,-80.75 662.46,-37.25 533.46,-37.25"/>
<text xml:space="preserve" text-anchor="start" x="545.46" y="-59.77" font-family="Helvetica,sans-Serif" font-weight="bold" font-size="10.50">Paquetes completos</text>
<text xml:space="preserve" text-anchor="start" x="551.46" y="-50.7" font-family="Helvetica,sans-Serif" font-size="9.00">+ fragmentos parciales</text>
<polygon fill="#dcfce7" stroke="none" points="662.46,-37.25 662.46,-80.75 767.46,-80.75 767.46,-37.25 662.46,-37.25"/>
<polygon fill="none" stroke="#16a34a" points="662.46,-37.25 662.46,-80.75 767.46,-80.75 767.46,-37.25 662.46,-37.25"/>
<text xml:space="preserve" text-anchor="start" x="684.21" y="-59.77" font-family="Helvetica,sans-Serif" font-weight="bold" font-size="10.50">Portal Local</text>
<text xml:space="preserve" text-anchor="start" x="674.46" y="-50.7" font-family="Helvetica,sans-Serif" font-size="9.00">clase por Wi&#45;Fi/LAN</text>
<polygon fill="#dcfce7" stroke="none" points="767.46,-37.25 767.46,-80.75 858.21,-80.75 858.21,-37.25 767.46,-37.25"/>
<polygon fill="none" stroke="#16a34a" points="767.46,-37.25 767.46,-80.75 858.21,-80.75 858.21,-37.25 767.46,-37.25"/>
<text xml:space="preserve" text-anchor="start" x="779.46" y="-59.77" font-family="Helvetica,sans-Serif" font-weight="bold" font-size="10.50">Sesión Local</text>
<text xml:space="preserve" text-anchor="start" x="789.59" y="-50.7" font-family="Helvetica,sans-Serif" font-size="9.00">actor activo</text>
<polygon fill="#fef3c7" stroke="none" points="858.21,-37.25 858.21,-80.75 977.46,-80.75 977.46,-37.25 858.21,-37.25"/>
<polygon fill="none" stroke="#16a34a" points="858.21,-37.25 858.21,-80.75 977.46,-80.75 977.46,-37.25 858.21,-37.25"/>
<text xml:space="preserve" text-anchor="start" x="884.84" y="-59.77" font-family="Helvetica,sans-Serif" font-weight="bold" font-size="10.50">Outbox local</text>
<text xml:space="preserve" text-anchor="start" x="870.21" y="-50.7" font-family="Helvetica,sans-Serif" font-size="9.00">avance hasta confirmar</text>
<polygon fill="#ffffff" stroke="none" points="408.21,-2 408.21,-37.25 977.46,-37.25 977.46,-2 408.21,-2"/>
<polygon fill="none" stroke="#16a34a" points="408.21,-2 408.21,-37.25 977.46,-37.25 977.46,-2 408.21,-2"/>
<text xml:space="preserve" text-anchor="start" x="462.96" y="-16.7" font-family="Helvetica,sans-Serif" font-size="9.00">H2: catálogo → rangos → verificación → paquete activo &#160;&#160;· &#160;&#160;H3: sesión → recurso local → outbox → confirmación</text>
<polygon fill="none" stroke="#16a34a" stroke-width="2" points="407.21,-1 407.21,-133.75 978.46,-133.75 978.46,-1 407.21,-1"/>
</g>
<!-- center&#45;&gt;edge_site -->
<g id="edge4" class="edge">
<title>center:sync&#45;&gt;edge_site:sync</title>
<path fill="none" stroke="#dc2626" stroke-width="2" stroke-dasharray="5,2" d="M237.61,-241.4C235.74,-214.61 232.59,-169.5 232.59,-169.5 232.59,-169.5 232.59,-159.75 232.59,-159.75 232.59,-159.75 362.73,-84.67 398.31,-64.13"/>
<polygon fill="#dc2626" stroke="#dc2626" stroke-width="2" points="399.41,-66.53 404.59,-60.51 396.78,-61.99 399.41,-66.53"/>
<text xml:space="preserve" text-anchor="middle" x="283.21" y="-160.95" font-family="Helvetica,sans-Serif" font-size="9.00">H2 catálogo · revocación</text>
</g>
<!-- center&#45;&gt;edge_site -->
<g id="edge5" class="edge">
<title>center:objects&#45;&gt;edge_site:sync</title>
<path fill="none" stroke="#dc2626" stroke-width="2" stroke-dasharray="5,2" d="M238.96,-195.5C238.96,-195.5 339.84,-169.5 339.84,-169.5 339.84,-169.5 386.04,-93.72 401.93,-67.67"/>
<polygon fill="#dc2626" stroke="#dc2626" stroke-width="2" points="403.97,-69.35 405.64,-61.58 399.49,-66.62 403.97,-69.35"/>
<text xml:space="preserve" text-anchor="middle" x="385.35" y="-160.95" font-family="Helvetica,sans-Serif" font-size="9.00">H2 rangos faltantes</text>
</g>
<!-- edge_site&#45;&gt;center -->
<g id="edge6" class="edge">
<title>edge_site:sync&#45;&gt;center:report</title>
<path fill="none" stroke="#dc2626" stroke-width="2" stroke-dasharray="5,2" d="M407.21,-59C407.21,-59 408.21,-134.75 408.21,-134.75 408.21,-134.75 434.84,-159.75 434.84,-159.75 434.84,-159.75 466.45,-202.97 488.32,-232.87"/>
<polygon fill="#dc2626" stroke="#dc2626" stroke-width="2" points="486.14,-234.33 492.68,-238.83 490.37,-231.23 486.14,-234.33"/>
<text xml:space="preserve" text-anchor="middle" x="485.41" y="-160.95" font-family="Helvetica,sans-Serif" font-size="9.00">H2 estado + last seen</text>
</g>
<!-- edge_site&#45;&gt;center -->
<g id="edge7" class="edge">
<title>edge_site:outbox&#45;&gt;center:progress</title>
<path fill="none" stroke="#dc2626" stroke-width="2" stroke-dasharray="5,2" d="M978.46,-59C978.46,-59 977.46,-134.75 977.46,-134.75 977.46,-134.75 826.84,-169.5 826.84,-169.5 826.84,-169.5 575.78,-219.53 445.47,-245.5"/>
<polygon fill="#dc2626" stroke="#dc2626" stroke-width="2" points="445.35,-242.85 438.51,-246.89 446.38,-248 445.35,-242.85"/>
<text xml:space="preserve" text-anchor="middle" x="908.48" y="-160.95" font-family="Helvetica,sans-Serif" font-size="9.00">H3 lote idempotente</text>
</g>
<!-- provincia -->
<g id="node6" class="node">
<title>provincia</title>
<ellipse fill="#dcfce7" stroke="#16a34a" cx="1008.84" cy="-280.62" rx="69.82" ry="18"/>
<text xml:space="preserve" text-anchor="middle" x="1008.84" y="-276.27" font-family="Helvetica,sans-Serif" font-size="10.50">Profesor de Provincia</text>
</g>
<!-- provincia&#45;&gt;edge_site -->
<g id="edge8" class="edge">
<title>provincia&#45;&gt;edge_site:portal</title>
<path fill="none" stroke="#16a34a" stroke-width="2" d="M1001.82,-262.45C988.27,-229.3 959.84,-159.75 959.84,-159.75 959.84,-159.75 847.72,-114.08 775.21,-84.54"/>
<polygon fill="#16a34a" stroke="#16a34a" stroke-width="2" points="776.44,-82.21 768.5,-81.81 774.46,-87.07 776.44,-82.21"/>
<text xml:space="preserve" text-anchor="middle" x="988.33" y="-160.95" font-family="Helvetica,sans-Serif" font-size="9.00">H2 presenta</text>
</g>
<!-- alumno -->
<g id="node7" class="node">
<title>alumno</title>
<ellipse fill="#dcfce7" stroke="#16a34a" cx="827.84" cy="-280.62" rx="30.77" ry="18"/>
<text xml:space="preserve" text-anchor="middle" x="827.84" y="-276.27" font-family="Helvetica,sans-Serif" font-size="10.50">Alumno</text>
</g>
<!-- alumno&#45;&gt;edge_site -->
<g id="edge9" class="edge">
<title>alumno&#45;&gt;edge_site:portal</title>
<path fill="none" stroke="#16a34a" stroke-width="2" d="M819.35,-263.12C800.4,-226.24 754.39,-136.71 730.28,-89.8"/>
<polygon fill="#16a34a" stroke="#16a34a" stroke-width="2" points="732.63,-88.63 726.87,-83.16 727.96,-91.03 732.63,-88.63"/>
<text xml:space="preserve" text-anchor="middle" x="792.39" y="-160.95" font-family="Helvetica,sans-Serif" font-size="9.00">H3 aprende</text>
</g>
<!-- legend -->
<g id="node8" class="node">
<title>legend</title>
<polygon fill="#ffffff" stroke="#94a3b8" points="1379.09,-298.62 1118.59,-298.62 1118.59,-262.62 1385.09,-262.62 1385.09,-292.62 1379.09,-298.62"/>
<polyline fill="none" stroke="#94a3b8" points="1379.09,-298.62 1379.09,-292.62"/>
<polyline fill="none" stroke="#94a3b8" points="1385.09,-292.62 1379.09,-292.62"/>
<text xml:space="preserve" text-anchor="middle" x="1251.84" y="-281.82" font-family="Helvetica,sans-Serif" font-size="9.00">Azul: centro propio &#160;&#160;· &#160;&#160;Verde: sede propia &#160;&#160;· &#160;&#160;Rosado: tercero</text>
<text xml:space="preserve" text-anchor="middle" x="1251.84" y="-272.07" font-family="Helvetica,sans-Serif" font-size="9.00">Rojo punteado: Internet intermitente &#160;&#160;· &#160;&#160;Naranja: datos</text>
</g>
</g>
</svg>
